<svg width="537" height="160" viewBox="0 0 537 160" fill="none" xmlns="http://www.w3.org/2000/svg">
<path d="M400.14 118.12L400.95 116.29C401.96 117.1 403.58 117.68 405.13 117.68C407.1 117.68 407.94 116.97 407.94 116.03C407.94 113.3 400.41 115.09 400.41 110.38C400.41 108.34 402.04 106.6 405.51 106.6C407.03 106.6 408.62 107 409.73 107.72L408.99 109.55C407.85 108.88 406.6 108.55 405.5 108.55C403.54 108.55 402.75 109.31 402.75 110.27C402.75 112.97 410.26 111.21 410.26 115.86C410.26 117.89 408.61 119.62 405.14 119.62C403.16 119.64 401.19 119.03 400.14 118.12Z" fill="#1E9BB7"/>
<path d="M420.93 114.99V119.46H418.58V115.03L413.6 106.8H416.12L419.83 112.97L423.58 106.8H425.9L420.93 114.99Z" fill="#1E9BB7"/>
<path d="M429.23 118.12L430.04 116.29C431.05 117.1 432.66 117.68 434.22 117.68C436.19 117.68 437.03 116.97 437.03 116.03C437.03 113.3 429.5 115.09 429.5 110.38C429.5 108.34 431.13 106.6 434.6 106.6C436.12 106.6 437.71 107 438.82 107.72L438.08 109.55C436.94 108.88 435.69 108.55 434.59 108.55C432.63 108.55 431.84 109.31 431.84 110.27C431.84 112.97 439.35 111.21 439.35 115.86C439.35 117.89 437.7 119.62 434.23 119.62C432.26 119.64 430.28 119.03 429.23 118.12Z" fill="#1E9BB7"/>
<path d="M447.22 108.78H443.02V106.79H453.77V108.78H449.57V119.46H447.22V108.78Z" fill="#1E9BB7"/>
<path d="M468.19 117.49V119.46H458.69V106.79H467.94V108.76H461.05V112.05H467.17V113.99H461.05V117.48H468.19V117.49Z" fill="#1E9BB7"/>
<path d="M485.6 119.46L485.58 111.06L481.42 118.01H480.37L476.21 111.17V119.46H473.97V106.79H475.91L480.94 115.19L485.88 106.79H487.82L487.84 119.46H485.6Z" fill="#1E9BB7"/>
<path d="M493.32 118.12L494.13 116.29C495.14 117.1 496.75 117.68 498.31 117.68C500.28 117.68 501.12 116.97 501.12 116.03C501.12 113.3 493.59 115.09 493.59 110.38C493.59 108.34 495.22 106.6 498.69 106.6C500.21 106.6 501.8 107 502.91 107.72L502.17 109.55C501.03 108.88 499.78 108.55 498.68 108.55C496.72 108.55 495.93 109.31 495.93 110.27C495.93 112.97 503.44 111.21 503.44 115.86C503.44 117.89 501.79 119.62 498.32 119.62C496.34 119.64 494.37 119.03 493.32 118.12Z" fill="#1E9BB7"/>
<path d="M78.2299 124.07C76.4199 124.07 74.8599 125.16 74.1599 126.71C64.1799 126.23 54.9899 122.6 47.5699 116.8C46.6299 115.76 45.3199 113.74 46.3399 111.33C47.4899 108.6 49.1999 107.4 51.0099 106.13C52.0799 105.38 53.1799 104.61 54.1199 103.53C55.2399 102.24 55.8799 100.52 56.4899 98.86C56.8399 97.91 57.6599 95.68 58.0699 95.66C58.6199 95.8 59.9399 97.45 60.8199 98.54C62.8699 101.09 65.4199 104.27 69.2599 105.66C70.8299 106.23 72.4399 106.36 73.8599 106.47C75.0199 106.56 76.2099 106.66 76.7799 106.99C77.7299 107.55 78.9599 107.23 79.5299 106.28C80.0899 105.33 79.7699 104.1 78.8199 103.53C77.4599 102.73 75.7899 102.59 74.1899 102.46C72.9699 102.36 71.6999 102.26 70.6399 101.87C67.8499 100.86 65.7799 98.28 63.9499 96C62.0299 93.61 60.3699 91.56 57.9899 91.63C54.8399 91.75 53.6699 94.91 52.7399 97.45C52.2499 98.77 51.7499 100.14 51.1099 100.88C50.4999 101.58 49.6799 102.16 48.7299 102.83C46.7399 104.22 44.2699 105.96 42.6699 109.75C42.3799 110.43 42.1999 111.1 42.0899 111.75C34.2199 103.33 29.3899 92.05 29.3899 79.7C29.3899 77.53 29.5499 75.39 29.8399 73.3C30.1099 73.38 30.3699 73.46 30.6299 73.53C33.3299 74.31 34.3799 74.75 34.6499 76.31C35.3499 80.39 41.4899 88.42 47.7299 90.61C48.8799 91.01 49.8999 91.18 50.8199 91.18C52.9199 91.18 54.4399 90.31 55.4499 89.42C58.4199 86.79 55.5099 82.77 52.6999 78.87C51.5799 77.32 49.5399 74.49 49.4399 73.42C49.4799 73.4 49.5199 73.39 49.5699 73.37C51.5099 72.74 52.5799 72.81 53.5299 72.87C56.2999 73.05 57.6899 72.38 60.4699 68.04C62.2799 65.22 66.0399 64.37 69.3499 63.62C72.5999 62.89 76.2899 62.06 76.2899 58.62C76.2899 56.09 74.4999 53.36 71.6099 51.5C68.3099 49.37 64.5099 48.92 61.4599 50.3C59.4599 51.2 58.1499 50.75 57.7999 50.59C57.3899 50.4 57.2499 50.19 57.2399 50.19C57.2499 50.15 57.3499 49.97 57.6599 49.73C60.1599 47.86 62.9299 43.72 61.6299 40.81C61.1499 39.75 59.7999 38.07 56.0699 38.82C54.9899 39.04 53.8599 39.12 52.7599 39.09C59.1699 35.33 66.5299 33.03 74.3799 32.69C75.1499 34.03 76.5899 34.94 78.2499 34.94C80.7099 34.94 82.7099 32.94 82.7099 30.48C82.7099 28.02 80.7099 26.02 78.2499 26.02C76.4299 26.02 74.8599 27.12 74.1699 28.68C61.2999 29.25 49.2699 34.55 40.1599 43.75C30.6299 53.37 25.3799 66.14 25.3799 79.68C25.3799 93.23 30.6299 105.99 40.1599 115.61C41.7499 117.22 43.4399 118.69 45.1999 120.06C45.4599 120.31 45.7199 120.53 45.9599 120.72C46.0899 120.82 46.2399 120.9 46.3799 120.96C54.5099 126.9 64.1699 130.29 74.3699 130.69C75.1399 132.04 76.5899 132.95 78.2399 132.95C80.6999 132.95 82.6999 130.95 82.6999 128.49C82.6899 126.07 80.6899 124.07 78.2299 124.07ZM47.9099 42.36C50.6199 43.23 53.8099 43.39 56.8299 42.78C57.3699 42.67 57.7199 42.66 57.9299 42.67C57.8199 43.5 56.8099 45.36 55.2399 46.54C52.9299 48.27 52.8499 50.65 53.7899 52.24C55.1299 54.51 58.8599 55.9 63.1099 53.98C65.2399 53.02 67.7699 53.83 69.4299 54.9C71.0599 55.95 72.2199 57.45 72.2699 58.57C71.7699 59 69.7899 59.44 68.4699 59.74C64.8099 60.56 59.7899 61.69 57.0899 65.9C55.1199 68.98 54.8299 68.96 53.7799 68.89C52.6699 68.82 50.9899 68.71 48.3199 69.57C46.5599 70.14 45.8699 71.25 45.5999 72.08C44.7299 74.73 46.9099 77.75 49.4299 81.24C50.5999 82.86 52.5199 85.52 52.6299 86.55C52.0099 87.04 50.9799 87.52 49.0399 86.84C44.1599 85.12 39.0299 78.28 38.5799 75.64C37.8599 71.46 34.3099 70.44 31.7199 69.69C31.3099 69.57 30.9199 69.46 30.5399 69.34C33.0299 58.45 39.2999 48.96 47.9099 42.36Z" fill="#1E9BB7"/>
<path d="M64.4502 38.0799V44.6399C64.4502 45.7499 65.3502 46.6499 66.4602 46.6499C67.5702 46.6499 68.4702 45.7499 68.4702 44.6399V38.0799C68.4702 36.9699 67.5702 36.0699 66.4602 36.0699C65.3402 36.0799 64.4502 36.9799 64.4502 38.0799Z" fill="#1E9BB7"/>
<path d="M70.1299 38.0799V47.6399C70.1299 48.7499 71.0299 49.6499 72.1399 49.6499C73.2499 49.6499 74.1499 48.7499 74.1499 47.6399V38.0799C74.1499 36.9699 73.2499 36.0699 72.1399 36.0699C71.0299 36.0699 70.1299 36.9799 70.1299 38.0799Z" fill="#1E9BB7"/>
<path d="M80.1001 52.7899V38.0799C80.1001 36.9699 79.2001 36.0699 78.0901 36.0699C76.9801 36.0699 76.0801 36.9699 76.0801 38.0799V52.7899C76.0801 53.8999 76.9801 54.7999 78.0901 54.7999C79.2001 54.7999 80.1001 53.8999 80.1001 52.7899Z" fill="#1E9BB7"/>
<path d="M74.4599 113.27C75.5699 113.27 76.4699 112.37 76.4699 111.26C76.4699 110.15 75.5699 109.25 74.4599 109.25H64.9299C63.8199 109.25 62.9199 110.15 62.9199 111.26C62.9199 112.37 63.8199 113.27 64.9299 113.27H74.4599Z" fill="#1E9BB7"/>
<path d="M81.2495 116.59C81.2495 115.48 80.3495 114.58 79.2395 114.58H71.2795C70.1695 114.58 69.2695 115.48 69.2695 116.59C69.2695 117.7 70.1695 118.6 71.2795 118.6H79.2395C80.3495 118.59 81.2495 117.69 81.2495 116.59Z" fill="#1E9BB7"/>
<path d="M65.9397 123.92H73.8997C75.0097 123.92 75.9097 123.02 75.9097 121.91C75.9097 120.8 75.0097 119.9 73.8997 119.9H65.9397C64.8297 119.9 63.9297 120.8 63.9297 121.91C63.9297 123.02 64.8297 123.92 65.9397 123.92Z" fill="#1E9BB7"/>
<path d="M93.13 44.25V65.47H71.01C69.9 65.47 69 66.37 69 67.48C69 68.59 69.9 69.49 71.01 69.49H95.14C96.25 69.49 97.15 68.59 97.15 67.48V44.3C99.21 43.52 100.68 41.53 100.68 39.2C100.68 36.19 98.23 33.74 95.22 33.74C92.21 33.74 89.76 36.19 89.76 39.2C89.75 41.47 91.15 43.42 93.13 44.25ZM95.21 37.2C96.31 37.2 97.2 38.09 97.2 39.19C97.2 40.29 96.31 41.18 95.21 41.18C94.11 41.18 93.22 40.29 93.22 39.19C93.22 38.09 94.11 37.2 95.21 37.2Z" fill="#1E9BB7"/>
<path d="M116.59 66.8302C116.56 66.9702 116.54 67.11 116.54 67.25V74.75H63.6497C62.5397 74.75 61.6396 75.6502 61.6396 76.7602C61.6396 77.8702 62.5397 78.77 63.6497 78.77H118.55C119.66 78.77 120.56 77.8702 120.56 76.7602V67.25C120.56 67.12 120.55 66.9902 120.52 66.8702C122.59 66.0902 124.08 64.1 124.08 61.76C124.08 58.75 121.63 56.3 118.62 56.3C115.61 56.3 113.16 58.75 113.16 61.76C113.15 64.06 114.57 66.0202 116.59 66.8302ZM118.61 59.7701C119.71 59.7701 120.6 60.66 120.6 61.76C120.6 62.86 119.71 63.75 118.61 63.75C117.51 63.75 116.62 62.86 116.62 61.76C116.62 60.66 117.51 59.7701 118.61 59.7701Z" fill="#1E9BB7"/>
<path d="M121.16 80.78C118.93 80.78 117.01 82.13 116.16 84.05H62.5599C61.4499 84.05 60.5498 84.95 60.5498 86.06C60.5498 87.17 61.4499 88.07 62.5599 88.07H116.02C116.77 90.19 118.79 91.71 121.16 91.71C124.17 91.71 126.62 89.26 126.62 86.25C126.62 83.23 124.17 80.78 121.16 80.78ZM121.16 88.24C120.06 88.24 119.17 87.35 119.17 86.25C119.17 85.15 120.06 84.26 121.16 84.26C122.26 84.26 123.15 85.15 123.15 86.25C123.15 87.35 122.26 88.24 121.16 88.24Z" fill="#1E9BB7"/>
<path d="M110.18 103.07C107.76 103.07 105.71 104.65 104.99 106.83H99.7902V95.75C99.7902 94.64 98.8902 93.74 97.7802 93.74H70.4602C69.3502 93.74 68.4502 94.64 68.4502 95.75C68.4502 96.86 69.3502 97.76 70.4602 97.76H95.7902V108.84C95.7902 109.95 96.6902 110.85 97.8002 110.85H105.25C106.12 112.71 108.01 114 110.19 114C113.2 114 115.65 111.55 115.65 108.54C115.65 105.52 113.2 103.07 110.18 103.07ZM110.18 110.52C109.08 110.52 108.19 109.63 108.19 108.53C108.19 107.43 109.08 106.54 110.18 106.54C111.28 106.54 112.17 107.43 112.17 108.53C112.18 109.63 111.28 110.52 110.18 110.52Z" fill="#1E9BB7"/>
<path d="M139.24 81.88C139.24 59.44 156.42 43.23 179.5 43.23C191.74 43.23 202.26 47.63 209.24 55.79L200.22 64.27C194.74 58.36 187.98 55.47 180.14 55.47C164.57 55.47 153.3 66.42 153.3 81.88C153.3 97.34 164.57 108.29 180.14 108.29C187.98 108.29 194.74 105.39 200.22 99.38L209.24 107.97C202.26 116.13 191.74 120.53 179.39 120.53C156.42 120.53 139.24 104.32 139.24 81.88Z" fill="#1E9BB7"/>
<path d="M215.9 111.51L220.73 100.67C226.74 105.5 236.3 108.94 245.53 108.94C257.23 108.94 262.17 104.75 262.17 99.17C262.17 82.96 217.5 93.59 217.5 65.67C217.5 53.54 227.16 43.23 247.78 43.23C256.8 43.23 266.25 45.59 272.8 49.89L268.4 60.73C261.64 56.76 254.23 54.82 247.68 54.82C236.08 54.82 231.36 59.33 231.36 65.02C231.36 81.02 275.92 70.6 275.92 98.2C275.92 110.23 266.15 120.53 245.53 120.53C233.83 120.53 222.13 116.88 215.9 111.51Z" fill="#1E9BB7"/>
<path d="M284.4 81.88C284.4 59.65 301.58 43.23 324.88 43.23C348.18 43.23 365.36 59.55 365.36 81.88C365.36 104.21 348.18 120.53 324.88 120.53C301.58 120.53 284.4 104.11 284.4 81.88ZM351.3 81.88C351.3 66.53 340.03 55.47 324.89 55.47C309.75 55.47 298.48 66.53 298.48 81.88C298.48 97.23 309.75 108.29 324.89 108.29C340.03 108.29 351.3 97.23 351.3 81.88Z" fill="#1E9BB7"/>
<path d="M394.14 56V78.8701H430.43V90.68H394.14V119.46H380.18V44.3H435.05V56H394.14Z" fill="#1E9BB7"/>
<path d="M464.36 56.1101H439.45V44.3H503.23V56.1101H478.32V103.98H464.36V56.1101Z" fill="#1E9BB7"/>
</svg>
