<svg width="537" height="160" viewBox="0 0 537 160" fill="none" xmlns="http://www.w3.org/2000/svg">
<path d="M400.14 118.12L400.95 116.29C401.96 117.1 403.58 117.68 405.13 117.68C407.1 117.68 407.94 116.97 407.94 116.03C407.94 113.3 400.41 115.09 400.41 110.38C400.41 108.34 402.04 106.6 405.51 106.6C407.03 106.6 408.62 107 409.73 107.72L408.99 109.55C407.85 108.88 406.6 108.55 405.5 108.55C403.54 108.55 402.75 109.31 402.75 110.27C402.75 112.97 410.26 111.21 410.26 115.86C410.26 117.89 408.61 119.62 405.14 119.62C403.16 119.64 401.19 119.03 400.14 118.12Z" fill="white"/>
<path d="M420.93 114.99V119.46H418.58V115.03L413.6 106.8H416.12L419.83 112.97L423.58 106.8H425.9L420.93 114.99Z" fill="white"/>
<path d="M429.23 118.12L430.04 116.29C431.05 117.1 432.66 117.68 434.22 117.68C436.19 117.68 437.03 116.97 437.03 116.03C437.03 113.3 429.5 115.09 429.5 110.38C429.5 108.34 431.13 106.6 434.6 106.6C436.12 106.6 437.71 107 438.82 107.72L438.08 109.55C436.94 108.88 435.69 108.55 434.59 108.55C432.63 108.55 431.84 109.31 431.84 110.27C431.84 112.97 439.35 111.21 439.35 115.86C439.35 117.89 437.7 119.62 434.23 119.62C432.26 119.64 430.28 119.03 429.23 118.12Z" fill="white"/>
<path d="M447.22 108.78H443.02V106.79H453.77V108.78H449.57V119.46H447.22V108.78Z" fill="white"/>
<path d="M468.19 117.49V119.46H458.69V106.79H467.94V108.76H461.05V112.05H467.17V113.99H461.05V117.48H468.19V117.49Z" fill="white"/>
<path d="M485.6 119.46L485.58 111.06L481.42 118.01H480.37L476.21 111.17V119.46H473.97V106.79H475.91L480.94 115.19L485.88 106.79H487.82L487.84 119.46H485.6Z" fill="white"/>
<path d="M493.32 118.12L494.13 116.29C495.14 117.1 496.75 117.68 498.31 117.68C500.28 117.68 501.12 116.97 501.12 116.03C501.12 113.3 493.59 115.09 493.59 110.38C493.59 108.34 495.22 106.6 498.69 106.6C500.21 106.6 501.8 107 502.91 107.72L502.17 109.55C501.03 108.88 499.78 108.55 498.68 108.55C496.72 108.55 495.93 109.31 495.93 110.27C495.93 112.97 503.44 111.21 503.44 115.86C503.44 117.89 501.79 119.62 498.32 119.62C496.34 119.64 494.37 119.03 493.32 118.12Z" fill="white"/>
<path d="M78.23 124.07C76.42 124.07 74.86 125.16 74.16 126.71C64.18 126.23 54.99 122.6 47.57 116.8C46.63 115.76 45.32 113.74 46.34 111.33C47.49 108.6 49.2 107.4 51.01 106.13C52.08 105.38 53.18 104.61 54.12 103.53C55.24 102.24 55.88 100.52 56.49 98.86C56.84 97.91 57.66 95.68 58.07 95.66C58.62 95.8 59.94 97.45 60.82 98.54C62.87 101.09 65.42 104.27 69.26 105.66C70.83 106.23 72.44 106.36 73.86 106.47C75.02 106.56 76.21 106.66 76.78 106.99C77.73 107.55 78.96 107.23 79.53 106.28C80.09 105.33 79.77 104.1 78.82 103.53C77.46 102.73 75.79 102.59 74.19 102.46C72.97 102.36 71.7 102.26 70.64 101.87C67.85 100.86 65.78 98.28 63.95 96C62.03 93.61 60.37 91.56 57.99 91.63C54.84 91.75 53.67 94.91 52.74 97.45C52.25 98.77 51.75 100.14 51.11 100.88C50.5 101.58 49.68 102.16 48.73 102.83C46.74 104.22 44.27 105.96 42.67 109.75C42.38 110.43 42.2 111.1 42.09 111.75C34.22 103.33 29.39 92.05 29.39 79.7C29.39 77.53 29.55 75.39 29.84 73.3C30.11 73.38 30.37 73.46 30.63 73.53C33.33 74.31 34.38 74.75 34.65 76.31C35.35 80.39 41.49 88.42 47.73 90.61C48.88 91.01 49.9 91.18 50.82 91.18C52.92 91.18 54.44 90.31 55.45 89.42C58.42 86.79 55.51 82.77 52.7 78.87C51.58 77.32 49.54 74.49 49.44 73.42C49.48 73.4 49.52 73.39 49.57 73.37C51.51 72.74 52.58 72.81 53.53 72.87C56.3 73.05 57.69 72.38 60.47 68.04C62.28 65.22 66.04 64.37 69.35 63.62C72.6 62.89 76.29 62.06 76.29 58.62C76.29 56.09 74.5 53.36 71.61 51.5C68.31 49.37 64.51 48.92 61.46 50.3C59.46 51.2 58.15 50.75 57.8 50.59C57.39 50.4 57.25 50.19 57.24 50.19C57.25 50.15 57.35 49.97 57.66 49.73C60.16 47.86 62.93 43.72 61.63 40.81C61.15 39.75 59.8 38.07 56.07 38.82C54.99 39.04 53.86 39.12 52.76 39.09C59.17 35.33 66.53 33.03 74.38 32.69C75.15 34.03 76.59 34.94 78.25 34.94C80.71 34.94 82.71 32.94 82.71 30.48C82.71 28.02 80.71 26.02 78.25 26.02C76.43 26.02 74.86 27.12 74.17 28.68C61.3 29.25 49.27 34.55 40.16 43.75C30.63 53.37 25.38 66.14 25.38 79.68C25.38 93.23 30.63 105.99 40.16 115.61C41.75 117.22 43.44 118.69 45.2 120.06C45.46 120.31 45.72 120.53 45.96 120.72C46.09 120.82 46.24 120.9 46.38 120.96C54.51 126.9 64.17 130.29 74.37 130.69C75.14 132.04 76.59 132.95 78.24 132.95C80.7 132.95 82.7 130.95 82.7 128.49C82.69 126.07 80.69 124.07 78.23 124.07ZM47.91 42.36C50.62 43.23 53.81 43.39 56.83 42.78C57.37 42.67 57.72 42.66 57.93 42.67C57.82 43.5 56.81 45.36 55.24 46.54C52.93 48.27 52.85 50.65 53.79 52.24C55.13 54.51 58.86 55.9 63.11 53.98C65.24 53.02 67.77 53.83 69.43 54.9C71.06 55.95 72.22 57.45 72.27 58.57C71.77 59 69.79 59.44 68.47 59.74C64.81 60.56 59.79 61.69 57.09 65.9C55.12 68.98 54.83 68.96 53.78 68.89C52.67 68.82 50.99 68.71 48.32 69.57C46.56 70.14 45.87 71.25 45.6 72.08C44.73 74.73 46.91 77.75 49.43 81.24C50.6 82.86 52.52 85.52 52.63 86.55C52.01 87.04 50.98 87.52 49.04 86.84C44.16 85.12 39.03 78.28 38.58 75.64C37.86 71.46 34.31 70.44 31.72 69.69C31.31 69.57 30.92 69.46 30.54 69.34C33.03 58.45 39.3 48.96 47.91 42.36Z" fill="white"/>
<path d="M64.45 38.08V44.64C64.45 45.75 65.35 46.65 66.46 46.65C67.57 46.65 68.47 45.75 68.47 44.64V38.08C68.47 36.97 67.57 36.07 66.46 36.07C65.34 36.08 64.45 36.98 64.45 38.08Z" fill="white"/>
<path d="M70.13 38.08V47.64C70.13 48.75 71.03 49.65 72.14 49.65C73.25 49.65 74.15 48.75 74.15 47.64V38.08C74.15 36.97 73.25 36.07 72.14 36.07C71.03 36.07 70.13 36.98 70.13 38.08Z" fill="white"/>
<path d="M80.1 52.79V38.08C80.1 36.97 79.2 36.07 78.09 36.07C76.98 36.07 76.08 36.97 76.08 38.08V52.79C76.08 53.9 76.98 54.8 78.09 54.8C79.2 54.8 80.1 53.9 80.1 52.79Z" fill="white"/>
<path d="M74.46 113.27C75.57 113.27 76.47 112.37 76.47 111.26C76.47 110.15 75.57 109.25 74.46 109.25H64.93C63.82 109.25 62.92 110.15 62.92 111.26C62.92 112.37 63.82 113.27 64.93 113.27H74.46Z" fill="white"/>
<path d="M81.25 116.59C81.25 115.48 80.35 114.58 79.24 114.58H71.28C70.17 114.58 69.27 115.48 69.27 116.59C69.27 117.7 70.17 118.6 71.28 118.6H79.24C80.35 118.59 81.25 117.69 81.25 116.59Z" fill="white"/>
<path d="M65.9401 123.92H73.9001C75.0101 123.92 75.9101 123.02 75.9101 121.91C75.9101 120.8 75.0101 119.9 73.9001 119.9H65.9401C64.8301 119.9 63.9301 120.8 63.9301 121.91C63.9301 123.02 64.8301 123.92 65.9401 123.92Z" fill="white"/>
<path d="M93.13 44.25V65.47H71.01C69.9 65.47 69 66.37 69 67.48C69 68.59 69.9 69.49 71.01 69.49H95.14C96.25 69.49 97.15 68.59 97.15 67.48V44.3C99.21 43.52 100.68 41.53 100.68 39.2C100.68 36.19 98.23 33.74 95.22 33.74C92.21 33.74 89.76 36.19 89.76 39.2C89.75 41.47 91.15 43.42 93.13 44.25ZM95.21 37.2C96.31 37.2 97.2 38.09 97.2 39.19C97.2 40.29 96.31 41.18 95.21 41.18C94.11 41.18 93.22 40.29 93.22 39.19C93.22 38.09 94.11 37.2 95.21 37.2Z" fill="white"/>
<path d="M116.59 66.8301C116.56 66.9701 116.54 67.11 116.54 67.25V74.75H63.65C62.54 74.75 61.64 75.6501 61.64 76.7601C61.64 77.8701 62.54 78.77 63.65 78.77H118.55C119.66 78.77 120.56 77.8701 120.56 76.7601V67.25C120.56 67.12 120.55 66.9901 120.52 66.8701C122.59 66.0901 124.08 64.1 124.08 61.76C124.08 58.75 121.63 56.3 118.62 56.3C115.61 56.3 113.16 58.75 113.16 61.76C113.15 64.06 114.57 66.0201 116.59 66.8301ZM118.61 59.7701C119.71 59.7701 120.6 60.66 120.6 61.76C120.6 62.86 119.71 63.75 118.61 63.75C117.51 63.75 116.62 62.86 116.62 61.76C116.62 60.66 117.51 59.7701 118.61 59.7701Z" fill="white"/>
<path d="M121.16 80.78C118.93 80.78 117.01 82.13 116.16 84.05H62.5601C61.4501 84.05 60.55 84.95 60.55 86.06C60.55 87.17 61.4501 88.07 62.5601 88.07H116.02C116.77 90.19 118.79 91.71 121.16 91.71C124.17 91.71 126.62 89.26 126.62 86.25C126.62 83.23 124.17 80.78 121.16 80.78ZM121.16 88.24C120.06 88.24 119.17 87.35 119.17 86.25C119.17 85.15 120.06 84.26 121.16 84.26C122.26 84.26 123.15 85.15 123.15 86.25C123.15 87.35 122.26 88.24 121.16 88.24Z" fill="white"/>
<path d="M110.18 103.07C107.76 103.07 105.71 104.65 104.99 106.83H99.79V95.75C99.79 94.64 98.89 93.74 97.78 93.74H70.46C69.35 93.74 68.45 94.64 68.45 95.75C68.45 96.86 69.35 97.76 70.46 97.76H95.79V108.84C95.79 109.95 96.69 110.85 97.8 110.85H105.25C106.12 112.71 108.01 114 110.19 114C113.2 114 115.65 111.55 115.65 108.54C115.65 105.52 113.2 103.07 110.18 103.07ZM110.18 110.52C109.08 110.52 108.19 109.63 108.19 108.53C108.19 107.43 109.08 106.54 110.18 106.54C111.28 106.54 112.17 107.43 112.17 108.53C112.18 109.63 111.28 110.52 110.18 110.52Z" fill="white"/>
<path d="M139.24 81.88C139.24 59.44 156.42 43.23 179.5 43.23C191.74 43.23 202.26 47.63 209.24 55.79L200.22 64.27C194.74 58.36 187.98 55.47 180.14 55.47C164.57 55.47 153.3 66.42 153.3 81.88C153.3 97.34 164.57 108.29 180.14 108.29C187.98 108.29 194.74 105.39 200.22 99.38L209.24 107.97C202.26 116.13 191.74 120.53 179.39 120.53C156.42 120.53 139.24 104.32 139.24 81.88Z" fill="white"/>
<path d="M215.9 111.51L220.73 100.67C226.74 105.5 236.3 108.94 245.53 108.94C257.23 108.94 262.17 104.75 262.17 99.17C262.17 82.96 217.5 93.59 217.5 65.67C217.5 53.54 227.16 43.23 247.78 43.23C256.8 43.23 266.25 45.59 272.8 49.89L268.4 60.73C261.64 56.76 254.23 54.82 247.68 54.82C236.08 54.82 231.36 59.33 231.36 65.02C231.36 81.02 275.92 70.6 275.92 98.2C275.92 110.23 266.15 120.53 245.53 120.53C233.83 120.53 222.13 116.88 215.9 111.51Z" fill="white"/>
<path d="M284.4 81.88C284.4 59.65 301.58 43.23 324.88 43.23C348.18 43.23 365.36 59.55 365.36 81.88C365.36 104.21 348.18 120.53 324.88 120.53C301.58 120.53 284.4 104.11 284.4 81.88ZM351.3 81.88C351.3 66.53 340.03 55.47 324.89 55.47C309.75 55.47 298.48 66.53 298.48 81.88C298.48 97.23 309.75 108.29 324.89 108.29C340.03 108.29 351.3 97.23 351.3 81.88Z" fill="white"/>
<path d="M394.14 56V78.87H430.43V90.68H394.14V119.46H380.18V44.3H435.05V56H394.14Z" fill="white"/>
<path d="M464.36 56.11H439.45V44.3H503.23V56.11H478.32V103.98H464.36V56.11Z" fill="white"/>
</svg>
