<?xml version="1.0" encoding="utf-8"?>
<!-- Generator: Adobe Illustrator 26.0.1, SVG Export Plug-In . SVG Version: 6.00 Build 0)  -->
<svg version="1.1" id="Layer_1" xmlns="http://www.w3.org/2000/svg" xmlns:xlink="http://www.w3.org/1999/xlink" x="0px" y="0px"
	 viewBox="0 0 263 140" style="enable-background:new 0 0 263 140;" xml:space="preserve">
<style type="text/css">
	.st0{fill:#FFFFFF;}
</style>
<g>
	<g>
		<path class="st0" d="M108.1,70.2c-2.1-0.2-4,1.3-4.3,3.4l-3.7,27.9h7.8l3.7-26.9C112,72.4,110.3,70.4,108.1,70.2z"/>
		<rect x="58.2" y="75.3" class="st0" width="39.5" height="26.2"/>
		<path class="st0" d="M79,52.3h-2.2c-5.2,0-9.8,2.1-13.2,5.5c-3.4,3.4-5.5,8-5.5,13.2h39.5C97.7,60.7,89.3,52.3,79,52.3z
			 M69.2,64.8c-1.3,0-2.4-1.4-2.4-3s1.1-3,2.4-3s2.4,1.4,2.4,3S70.5,64.8,69.2,64.8z M86.6,64.8c-1.3,0-2.4-1.4-2.4-3s1.1-3,2.4-3
			s2.4,1.4,2.4,3S88,64.8,86.6,64.8z"/>
		<path class="st0" d="M50,73.4c-3,0-5.5,2.4-5.5,5.5v23h10.9v-23C55.5,75.9,53,73.4,50,73.4z"/>
	</g>
	<polygon class="st0" points="59.5,47.8 77.9,36.5 96.4,47.6 89.1,51.5 89.1,54.9 85.3,53.4 77.8,60.1 70.2,53.2 66.7,54.9 
		66.6,51.3 	"/>
	<g>
		<polygon class="st0" points="92.3,53.6 91.6,64.8 94.1,64.5 		"/>
		<ellipse class="st0" cx="92.1" cy="52.4" rx="0.5" ry="0.7"/>
	</g>
	<path class="st0" d="M101.8,60.1l3.2-0.2l2,12.7c0,0,1.6-2.5,2.8-2.6c0,0,1.3,0.4,0.1,1.7l-1.2,1l1.8,0.1c0,0,1.6,2.1-0.5,2.6
		c0,0-1.9,0.2-2.4-0.3s-0.1,0-0.1,0l3.5,14.7c0,0-3.2,0.2-3.5,0.6l-1.8-13.3l-0.7,5.3l-0.7-2.7c0,0-1.5,1-1.8,1c0,0,0.9,0.3,2.2-5.8
		c0,0-3,0.8-3.6-0.1c0,0-1.8-2.7,1.9-2.7c0,0-1.8-0.9-1.7-1.7c0,0-0.1-1.6,1.9-0.2l1.5,1.7L101.8,60.1z"/>
	<g>
		<path class="st0" d="M131.1,76l-2.9,12.7h-9.5l12.4-49.5h12.1l12.6,49.5h-9.9L142.8,76H131.1z M141.4,67.6l-2.5-10.5
			c-0.7-2.9-1.4-6.6-2.1-9.5h-0.1c-0.6,2.9-1.2,6.7-1.9,9.5l-2.4,10.5H141.4z"/>
		<path class="st0" d="M164,48.5h-10.9v-9.4h31.2v9.4h-11.1v40.1H164V48.5z"/>
		<path class="st0" d="M217.3,87.3c-1.7,1-5.5,2.1-10.4,2.1c-14,0-21.3-10.7-21.3-24.8c0-16.9,9.9-26.3,22.2-26.3
			c4.8,0,8.4,1.2,10,2.2l-1.9,8.9c-1.9-1-4.5-1.8-7.7-1.8c-7.3,0-13,5.4-13,16.4c0,9.9,4.8,16.2,13,16.2c2.8,0,5.9-0.7,7.7-1.6
			L217.3,87.3z"/>
	</g>
	<g>
		<g>
			<path class="st0" d="M119.2,99.9l-0.4,1.7h-1l1.6-6.1h1.2l1.7,6.1h-1l-0.5-1.7H119.2z M120.7,99.1l-0.4-1.5
				c-0.1-0.4-0.2-0.8-0.3-1.1l0,0c-0.1,0.3-0.2,0.8-0.2,1.1l-0.4,1.5H120.7z"/>
			<path class="st0" d="M126.2,95.2v5.2c0,0.4,0,0.9,0,1.2h-0.8v-0.7l0,0c-0.2,0.5-0.7,0.8-1.2,0.8c-0.9,0-1.6-0.9-1.6-2.2
				c0-1.5,0.8-2.3,1.6-2.3c0.5,0,0.9,0.2,1,0.6l0,0v-2.5L126.2,95.2L126.2,95.2z M125.3,99.1c0-0.1,0-0.2,0-0.3
				c-0.1-0.4-0.4-0.8-0.8-0.8c-0.6,0-0.9,0.6-0.9,1.5c0,0.8,0.3,1.4,0.9,1.4c0.4,0,0.7-0.3,0.8-0.8c0-0.1,0-0.2,0-0.3V99.1z"/>
			<path class="st0" d="M127.8,97.2l0.6,2.2c0.1,0.4,0.2,0.7,0.2,1.1l0,0c0.1-0.4,0.1-0.7,0.2-1.1l0.6-2.2h1l-1.4,4.4h-0.9l-1.4-4.4
				C126.8,97.2,127.8,97.2,127.8,97.2z"/>
			<path class="st0" d="M133.1,101.6l-0.1-0.5l0,0c-0.2,0.3-0.6,0.6-1.1,0.6c-0.7,0-1.1-0.6-1.1-1.3c0-1.1,0.8-1.7,2.2-1.7v-0.1
				c0-0.3-0.1-0.8-0.8-0.8c-0.4,0-0.7,0.1-1,0.3l-0.2-0.7c0.3-0.2,0.8-0.4,1.3-0.4c1.2,0,1.5,0.9,1.5,1.9v1.6c0,0.4,0,0.8,0.1,1.1
				H133.1L133.1,101.6z M133,99.5c-0.7,0-1.3,0.2-1.3,0.8c0,0.4,0.2,0.6,0.5,0.6c0.4,0,0.6-0.3,0.7-0.6c0-0.1,0-0.2,0-0.2v-0.6H133z
				"/>
			<path class="st0" d="M134.9,98.6c0-0.5,0-0.9,0-1.3h0.8V98l0,0c0.2-0.3,0.6-0.8,1.2-0.8c0.6,0,1.3,0.5,1.3,1.9v2.6h-0.9v-2.5
				c0-0.6-0.2-1.1-0.7-1.1c-0.4,0-0.6,0.3-0.7,0.7c0,0.1,0,0.2,0,0.4v2.6H135L134.9,98.6L134.9,98.6z"/>
			<path class="st0" d="M141.9,101.5c-0.2,0.1-0.6,0.2-1,0.2c-1.1,0-1.9-0.9-1.9-2.2c0-1.3,0.8-2.3,2-2.3c0.3,0,0.7,0.1,0.9,0.2
				l-0.2,0.8c-0.1-0.1-0.4-0.2-0.7-0.2c-0.7,0-1.1,0.6-1.1,1.4c0,0.9,0.5,1.4,1.1,1.4c0.3,0,0.6-0.1,0.7-0.2L141.9,101.5z"/>
			<path class="st0" d="M143.1,99.8c0,0.8,0.5,1.1,1.1,1.1c0.4,0,0.7-0.1,1-0.2l0.1,0.8c-0.3,0.2-0.8,0.3-1.3,0.3
				c-1.2,0-1.9-0.9-1.9-2.2c0-1.2,0.6-2.4,1.8-2.4s1.6,1.2,1.6,2.1c0,0.2,0,0.4,0,0.5L143.1,99.8L143.1,99.8z M144.8,99
				c0-0.4-0.1-1.1-0.8-1.1c-0.6,0-0.8,0.6-0.9,1.1H144.8z"/>
			<path class="st0" d="M149.8,95.2v5.2c0,0.4,0,0.9,0,1.2H149v-0.7l0,0c-0.2,0.5-0.7,0.8-1.2,0.8c-0.9,0-1.6-0.9-1.6-2.2
				c0-1.5,0.8-2.3,1.6-2.3c0.5,0,0.9,0.2,1,0.6l0,0v-2.5L149.8,95.2L149.8,95.2z M148.8,99.1c0-0.1,0-0.2,0-0.3
				c-0.1-0.4-0.4-0.8-0.8-0.8c-0.6,0-0.9,0.6-0.9,1.5c0,0.8,0.3,1.4,0.9,1.4c0.4,0,0.7-0.3,0.8-0.8c0-0.1,0-0.2,0-0.3V99.1z"/>
			<path class="st0" d="M153,96.5h-1.4v-0.9h3.8v0.9h-1.5v5.2H153V96.5z"/>
			<path class="st0" d="M155.6,98.7c0-0.6,0-1,0-1.4h0.8v0.8l0,0c0.2-0.6,0.6-0.9,1-0.9c0.1,0,0.1,0,0.2,0v1.1c-0.1,0-0.2,0-0.3,0
				c-0.4,0-0.8,0.3-0.8,0.8c0,0.1,0,0.2,0,0.3v2.3h-0.9V98.7z"/>
			<path class="st0" d="M160.3,101.6l-0.1-0.5l0,0c-0.2,0.3-0.6,0.6-1.1,0.6c-0.7,0-1.1-0.6-1.1-1.3c0-1.1,0.8-1.7,2.2-1.7v-0.1
				c0-0.3-0.1-0.8-0.8-0.8c-0.4,0-0.7,0.1-1,0.3l-0.2-0.7c0.3-0.2,0.8-0.4,1.3-0.4c1.2,0,1.5,0.9,1.5,1.9v1.6c0,0.4,0,0.8,0.1,1.1
				H160.3L160.3,101.6z M160.1,99.5c-0.7,0-1.3,0.2-1.3,0.8c0,0.4,0.2,0.6,0.5,0.6c0.4,0,0.6-0.3,0.7-0.6c0-0.1,0-0.2,0-0.2v-0.6
				H160.1z"/>
			<path class="st0" d="M163,96c0,0.3-0.2,0.6-0.5,0.6S162,96.3,162,96s0.2-0.6,0.5-0.6S163,95.7,163,96z M162,101.6v-4.4h0.9v4.4
				H162z"/>
			<path class="st0" d="M164,98.6c0-0.5,0-0.9,0-1.3h0.8l0.1,0.7l0,0c0.2-0.3,0.6-0.8,1.2-0.8c0.6,0,1.3,0.5,1.3,1.9v2.6h-0.9v-2.5
				c0-0.6-0.2-1.1-0.7-1.1c-0.4,0-0.6,0.3-0.7,0.7c0,0.1,0,0.2,0,0.4v2.6H164V98.6L164,98.6z"/>
			<path class="st0" d="M169.3,96c0,0.3-0.2,0.6-0.5,0.6s-0.5-0.3-0.5-0.6s0.2-0.6,0.5-0.6S169.3,95.7,169.3,96z M168.3,101.6v-4.4
				h0.9v4.4H168.3z"/>
			<path class="st0" d="M170.2,98.6c0-0.5,0-0.9,0-1.3h0.8l0.1,0.7l0,0c0.2-0.3,0.6-0.8,1.2-0.8c0.6,0,1.3,0.5,1.3,1.9v2.6h-0.9
				v-2.5c0-0.6-0.2-1.1-0.7-1.1c-0.4,0-0.6,0.3-0.7,0.7c0,0.1,0,0.2,0,0.4v2.6h-0.9L170.2,98.6L170.2,98.6z"/>
			<path class="st0" d="M177.9,97.2c0,0.3,0,0.7,0,1.3v2.5c0,0.9-0.2,1.6-0.5,2c-0.4,0.4-0.9,0.5-1.4,0.5s-1-0.1-1.3-0.3l0.2-0.8
				c0.2,0.2,0.6,0.3,1.1,0.3c0.6,0,1.1-0.4,1.1-1.3V101l0,0c-0.2,0.4-0.6,0.7-1.1,0.7c-0.9,0-1.6-0.9-1.6-2.2c0-1.4,0.8-2.3,1.7-2.3
				c0.6,0,0.9,0.3,1.1,0.7l0,0v-0.6L177.9,97.2L177.9,97.2z M176.9,99c0-0.1,0-0.2,0-0.3c-0.1-0.4-0.4-0.7-0.8-0.7
				c-0.5,0-0.9,0.5-0.9,1.4c0,0.8,0.3,1.4,0.9,1.4c0.4,0,0.6-0.3,0.8-0.7c0-0.1,0-0.3,0-0.4V99L176.9,99z"/>
			<path class="st0" d="M184.1,101.5c-0.2,0.1-0.7,0.3-1.3,0.3c-1.6,0-2.6-1.2-2.6-3.1c0-2,1.2-3.2,2.7-3.2c0.6,0,1.1,0.2,1.2,0.3
				l-0.2,0.9c-0.2-0.1-0.6-0.2-1-0.2c-1,0-1.8,0.8-1.8,2.2c0,1.3,0.7,2.2,1.8,2.2c0.4,0,0.8-0.1,1-0.2L184.1,101.5z"/>
			<path class="st0" d="M188.2,99.4c0,1.6-0.9,2.3-1.9,2.3s-1.8-0.9-1.8-2.3s0.8-2.3,1.9-2.3C187.5,97.1,188.2,98.1,188.2,99.4z
				 M185.4,99.4c0,0.8,0.4,1.5,0.9,1.5s0.9-0.6,0.9-1.5c0-0.7-0.3-1.5-0.9-1.5S185.4,98.7,185.4,99.4z"/>
			<path class="st0" d="M189,98.6c0-0.5,0-0.9,0-1.3h0.8l0.1,0.7l0,0c0.2-0.3,0.6-0.8,1.2-0.8c0.6,0,1.3,0.5,1.3,1.9v2.6h-0.9v-2.5
				c0-0.6-0.2-1.1-0.7-1.1c-0.4,0-0.6,0.3-0.7,0.7c0,0.1,0,0.2,0,0.4v2.6H189V98.6L189,98.6z"/>
			<path class="st0" d="M193.2,100.6c0.2,0.2,0.6,0.3,0.9,0.3c0.4,0,0.6-0.2,0.6-0.5s-0.1-0.4-0.6-0.6c-0.7-0.3-1-0.8-1-1.3
				c0-0.8,0.5-1.4,1.4-1.4c0.4,0,0.8,0.1,1,0.3l-0.2,0.8c-0.2-0.1-0.4-0.2-0.8-0.2s-0.5,0.2-0.5,0.5s0.2,0.4,0.6,0.6
				c0.7,0.3,1,0.7,1,1.3c0,0.8-0.5,1.4-1.5,1.4c-0.4,0-0.8-0.1-1.1-0.3L193.2,100.6z"/>
			<path class="st0" d="M199.7,100.3c0,0.5,0,1,0,1.3h-0.8v-0.7l0,0c-0.2,0.3-0.5,0.8-1.2,0.8s-1.3-0.5-1.3-1.9v-2.6h0.9v2.4
				c0,0.7,0.2,1.2,0.7,1.2c0.4,0,0.6-0.3,0.7-0.6c0-0.1,0.1-0.2,0.1-0.3v-2.7h0.9L199.7,100.3L199.7,100.3z"/>
			<path class="st0" d="M200.7,95.2h0.9v6.4h-0.9V95.2z"/>
			<path class="st0" d="M203.7,96v1.3h0.9v0.8h-0.9v1.9c0,0.5,0.1,0.8,0.5,0.8c0.2,0,0.3,0,0.4-0.1v0.8c-0.1,0.1-0.4,0.1-0.7,0.1
				s-0.6-0.1-0.8-0.4c-0.2-0.2-0.3-0.7-0.3-1.2v-2.1h-0.5v-0.8h0.5v-1L203.7,96z"/>
			<path class="st0" d="M207.4,101.6l-0.1-0.5l0,0c-0.2,0.3-0.6,0.6-1.1,0.6c-0.7,0-1.1-0.6-1.1-1.3c0-1.1,0.8-1.7,2.2-1.7v-0.1
				c0-0.3-0.1-0.8-0.8-0.8c-0.4,0-0.7,0.1-1,0.3l-0.2-0.7c0.3-0.2,0.8-0.4,1.3-0.4c1.2,0,1.5,0.9,1.5,1.9v1.6c0,0.4,0,0.8,0.1,1.1
				H207.4L207.4,101.6z M207.2,99.5c-0.7,0-1.3,0.2-1.3,0.8c0,0.4,0.2,0.6,0.5,0.6c0.4,0,0.6-0.3,0.7-0.6c0-0.1,0-0.2,0-0.2v-0.6
				H207.2z"/>
			<path class="st0" d="M209.1,98.6c0-0.5,0-0.9,0-1.3h0.8L210,98l0,0c0.2-0.3,0.6-0.8,1.2-0.8c0.6,0,1.3,0.5,1.3,1.9v2.6h-0.9v-2.5
				c0-0.6-0.2-1.1-0.7-1.1c-0.4,0-0.6,0.3-0.7,0.7c0,0.1,0,0.2,0,0.4v2.6h-0.9L209.1,98.6L209.1,98.6z"/>
			<path class="st0" d="M214.5,96v1.3h0.9v0.8h-0.9v1.9c0,0.5,0.1,0.8,0.5,0.8c0.2,0,0.3,0,0.4-0.1v0.8c-0.1,0.1-0.4,0.1-0.7,0.1
				s-0.6-0.1-0.8-0.4c-0.2-0.2-0.3-0.7-0.3-1.2v-2.1H213v-0.8h0.5v-1L214.5,96z"/>
			<path class="st0" d="M216,100.6c0.2,0.2,0.6,0.3,0.9,0.3c0.4,0,0.6-0.2,0.6-0.5s-0.1-0.4-0.6-0.6c-0.7-0.3-1-0.8-1-1.3
				c0-0.8,0.5-1.4,1.4-1.4c0.4,0,0.8,0.1,1,0.3l-0.2,0.8c-0.2-0.1-0.4-0.2-0.8-0.2s-0.5,0.2-0.5,0.5s0.2,0.4,0.6,0.6
				c0.7,0.3,1,0.7,1,1.3c0,0.8-0.5,1.4-1.5,1.4c-0.4,0-0.8-0.1-1.1-0.3L216,100.6z"/>
		</g>
	</g>
</g>
</svg>
