<?xml version="1.0" encoding="utf-8"?>
<!-- Generator: Adobe Illustrator 26.0.1, SVG Export Plug-In . SVG Version: 6.00 Build 0)  -->
<svg version="1.1" id="Layer_1" xmlns="http://www.w3.org/2000/svg" xmlns:xlink="http://www.w3.org/1999/xlink" x="0px" y="0px"
	 viewBox="0 0 263 140" style="enable-background:new 0 0 263 140;" xml:space="preserve">
<style type="text/css">
	.st0{fill-rule:evenodd;clip-rule:evenodd;fill:#FFFFFF;}
</style>
<path class="st0" d="M54.6,48.6h18.7l2.1,0.1l2,0.2l1.9,0.4l1.8,0.4l1.6,0.7l1.5,0.7l1.4,0.8l1.4,0.9l1.2,1l1.2,1.1l1,1.2l0.9,1.3
	l0.8,1.4l0.8,1.4l0.6,1.5l0.5,1.5L120.5,46l9.6,6.5l-20.7,13.3l3.3,2.2l20.8-13.2l9,6l-20.6,13.6l3.5,2.1l20.9-13.3V48.6h15.4v29.1
	h13.7v13.7h-29v-14L120.6,94L94.2,76.2l-0.5,1.5l-0.5,1.4l-0.8,1.4L91.7,82l-0.9,1.3l-1,1.3l-1.1,1.2l-1.3,1l-1.3,1l-1.5,0.8
	l-1.5,0.8l-1.7,0.7l-1.8,0.5l-2,0.4l-2,0.3l-2.1,0.1H54.6V48.6L54.6,48.6L54.6,48.6L54.6,48.6z M69.3,62h4l1.8,0.2l1.4,0.5l1.3,0.8
	l1.1,1l0.8,1.2l0.6,1.3l0.3,1.4l0.1,1.4l-0.1,1.4l-0.3,1.4L79.7,74l-0.8,1.2l-1,1L76.5,77L75,77.5l-1.7,0.2h-4V62L69.3,62L69.3,62
	L69.3,62z M179.4,48.6h15.5v29.1h13.6v13.7h-29V48.6H179.4L179.4,48.6L179.4,48.6z"/>
</svg>
