<?xml version="1.0" encoding="utf-8"?>
<!-- Generator: Adobe Illustrator 26.0.1, SVG Export Plug-In . SVG Version: 6.00 Build 0)  -->
<svg version="1.1" id="Layer_1" xmlns="http://www.w3.org/2000/svg" xmlns:xlink="http://www.w3.org/1999/xlink" x="0px" y="0px"
	 viewBox="0 0 263 140" style="enable-background:new 0 0 263 140;" xml:space="preserve">
<style type="text/css">
	.st0{fill-rule:evenodd;clip-rule:evenodd;}
</style>
<g>
	<path class="st0" d="M145.8,69.2c-3.3-4.2-0.6-10.9,5.5-11h12.4l-1.1,3H156h-3.5c-1.7,0-2.6,2-1.7,3.2c1.6,2.3,4.2,4,5.8,6.4
		c3.6,4.7,0,10.9-5.4,10.9h-13.7l1.1-3h7.4h3.4c1.6,0,2.6-2,1.7-3.2C149.9,73.3,147.5,71.2,145.8,69.2"/>
	<polygon class="st0" points="72.4,81.7 65.1,81.7 74,58.3 74.2,58.3 81,58.3 81.2,58.3 	"/>
	<polygon class="st0" points="133.3,81.7 126.4,81.7 135.3,58.3 142.1,58.3 	"/>
	<polygon class="st0" points="166.4,81.7 159.6,81.7 168.4,58.3 175.2,58.3 	"/>
	<path class="st0" d="M176.6,65.4c2.4-4.9,7.4-7.5,12-7.3h1.8h2.4c3.6,0.2,5.7,3,5.9,5.4c0,0.6,0,1.1,0,1.5
		c-0.1,0.3-0.1,0.5-0.2,0.8c-0.8,3-1.9,6.1-3.3,8.8c-2.4,4.9-7.4,7.5-12,7.3h-1.8l0,0H179c-3.6-0.2-5.7-3-5.9-5.4c0-0.6,0-1.1,0-1.5
		c0.1-0.3,0.1-0.5,0.2-0.8C174,71.2,175.2,68.1,176.6,65.4 M189.5,60.5L189.5,60.5c-2.5,0.1-4.6,1.5-5.5,3.8l-4.5,11.9
		c-0.1,0.3-0.2,0.6-0.2,0.9l0,0c0,1.3,1,2.3,2.3,2.4h0.7c2.5-0.1,4.6-1.5,5.5-3.8l4.5-12c0.1-0.3,0.2-0.6,0.2-0.9l0,0
		c0-1.3-1-2.3-2.3-2.4L189.5,60.5L189.5,60.5z"/>
	<path class="st0" d="M50.2,67.3h8.6l3.4-9h7.2l-8.3,22l0,0c-0.3,0.8-1.2,1.4-2.1,1.4h-5.6l4.2-11.2H49l-4.2,11.2h-7.2l8.9-23.5h7.2
		L50.2,67.3z"/>
	<path class="st0" d="M90,67.1l11.8-8.8h5.4l-12,9l7.6,14.4h-6.1c0,0,0,0,0.1,0c-0.9,0.1-1.8-0.5-2.2-1.3l0,0l0,0l-4.8-9.1L88,72.6
		l-3.4,9h-7.2l8.9-23.5h7.2L90,67.1z"/>
	<path class="st0" d="M117.5,74.4l11.1-16.1h4l-15.4,22.5l0,0c-0.4,0.6-1.1,1-1.8,1h-0.1h-0.1l0,0H115h-2.4h-1.2l-1.9-23.5h6.8
		L117.5,74.4z"/>
	<path class="st0" d="M205.9,65.8v-0.3l-6.1,16.2h-3.5l8.9-23.5h3.5h0.9l6.4,15.9l6-15.9h3.5l-8.9,23.5h-3.2c-0.9-0.1-1.6-0.6-2-1.4
		L205.9,65.8z"/>
</g>
</svg>
