<?xml version="1.0" encoding="utf-8"?>
<!-- Generator: Adobe Illustrator 26.0.1, SVG Export Plug-In . SVG Version: 6.00 Build 0)  -->
<svg version="1.1" id="Layer_1" xmlns="http://www.w3.org/2000/svg" xmlns:xlink="http://www.w3.org/1999/xlink" x="0px" y="0px"
	 viewBox="0 0 263 140" style="enable-background:new 0 0 263 140;" xml:space="preserve">
<style type="text/css">
	.st0{fill:#FFFFFF;}
</style>
<g>
	<rect x="135.8" y="44.7" class="st0" width="12.3" height="48.5"/>
	<path class="st0" d="M111.8,65.3c4.5-0.2,7.3,4.6,7.3,11.1c0,8.3-2.8,11.9-7.5,11.9c-4.4,0-7.5-3.6-7.5-11.9
		C104.1,71.4,105.8,65.3,111.8,65.3z M92.2,77.3c0,11.9,8.6,17.9,19.7,17.9s19.7-5.9,19.7-18.7c0-10.8-7.5-18-19.8-18
		C100.2,58.6,92.2,65.3,92.2,77.3z"/>
	<path class="st0" d="M172.8,86.8c-3.5,0-6.6-2.7-6.6-6.8h25.3c0.2-12.5-7.3-21.4-19.6-21.4c-10.7,0-18.9,7.3-18.9,18.6
		c0,11.7,8.3,18.1,18.9,18.1c7.8,0,16.2-2.8,18.5-11.5h-12.7C176.8,85.8,174.9,86.8,172.8,86.8z M178.2,73h-12
		C166.2,64,178.4,63.9,178.2,73z"/>
	<path class="st0" d="M62.1,93.3V72c0-3.3,2.7-6,6-6s6,2.7,6,6v21.3h11.8V67.9c-0.2-2.4-2.5-5.9-5.4-7.5c-3.8-1.8-12.3-3.9-19.3,3.8
		c-2.3-2.4-5.1-4.2-8.2-5.1c-5.2-1.1-10.7,0-14.5,4c-0.5,0.4-0.9,1.5-0.9,0.6v-4.3H25.5v33.9h12.1V71.9c0-3.3,2.7-6,6-6s6,2.7,6,6
		v21.3h12.5V93.3z"/>
	<g>
		<g>
			<path class="st0" d="M233.3,61v-0.9h0.9c0.4,0,0.5,0.3,0.5,0.5c0,0.3-0.2,0.5-0.6,0.5L233.3,61L233.3,61z M232.5,63h0.8v-1.3h0.8
				c0.6,0,0.6,0.2,0.6,0.7c0,0.4,0,0.5,0.1,0.7h0.8V63c-0.2-0.1-0.2-0.2-0.2-0.7c0-0.6-0.2-0.8-0.5-0.9c0.4-0.1,0.6-0.4,0.6-0.8
				c0-0.3-0.2-1-1.1-1h-1.8L232.5,63L232.5,63z"/>
		</g>
		<path class="st0" d="M230.5,61.3c0-1.9,1.6-3.5,3.5-3.5s3.5,1.5,3.5,3.5c0,1.9-1.6,3.5-3.5,3.5S230.5,63.2,230.5,61.3z M234,64.3
			c1.7,0,3-1.3,3-3s-1.4-3-3-3c-1.7,0-3,1.3-3,3S232.3,64.3,234,64.3z"/>
	</g>
	<g>
		<path class="st0" d="M217.7,59.4l-5.8,8.2c-1.8-2.5-3.5-5.6-5.1-8.2h-13.6l10.6,15.7c0,0-7.9,11.8-12.1,18.1h11.9l6.6-10.7
			c1.1,1.6,3.7,6.6,6.2,10.7h13.1c-3.3-5.4-11.2-18.2-11.2-18.2c3.2-5.4,7.6-10.3,11-15.7L217.7,59.4L217.7,59.4z"/>
	</g>
</g>
</svg>
