<?xml version="1.0" encoding="utf-8"?>
<!-- Generator: Adobe Illustrator 26.0.1, SVG Export Plug-In . SVG Version: 6.00 Build 0)  -->
<svg version="1.1" id="Layer_1" xmlns="http://www.w3.org/2000/svg" xmlns:xlink="http://www.w3.org/1999/xlink" x="0px" y="0px"
	 viewBox="0 0 263 140" style="enable-background:new 0 0 263 140;" xml:space="preserve">
<style type="text/css">
	.st0{fill:#FFFFFF;}
	.st1{fill:#FFFFFF;stroke:#393738;stroke-width:9.380000e-02;stroke-miterlimit:10;}
	.st2{fill:#FFFFFF;stroke:#FFFFFF;stroke-width:9.380000e-02;stroke-miterlimit:10;}
</style>
<g>
	<path class="st0" d="M155.2,19.3c0.5,0.1,0.9,0.3,1.4,0.5c-0.5,1.6-1.5,3-2.3,4.4c-0.7,1.1-1.2,2.2-1.9,3.2
		c0.3-1.1,0.7-2.2,1.1-3.2C154,22.5,154.5,20.9,155.2,19.3L155.2,19.3z"/>
	<path class="st0" d="M159.2,21.6c0.4,0.3,0.7,0.6,1.1,0.9c-0.9,1.3-2.1,2.2-3.2,3.2c-1,0.9-2,1.8-3.1,2.6c0.5-1,1.3-1.8,1.9-2.6
		C156.9,24.3,157.9,22.8,159.2,21.6L159.2,21.6z"/>
	<path class="st1" d="M136,24.3c0.4-0.1,0.9-0.3,1.1,0.2c0.6,1,1.1,2,1.7,3c0.4,0.7,1.2,1,2,1.1c2.4,0,4.9-0.8,7.3-1
		c1.1-0.2,1.8,1.4,0.9,2.1c-1.8,1.5-4.2,2-5.9,3.7c-0.4,0.4,0,0.9,0.3,1.3c1.2,1.4,2.6,2.6,3.8,4.1c0.4,0.5,0.9,1,0.6,1.7
		c-0.3,0.6-1.1,0.8-1.7,0.5c-1.9-0.8-3.6-2-5.5-3c-0.4-0.2-0.8-0.3-1.2-0.2c-0.4,0.2-0.5,0.6-0.7,1c-2.2-1.8-4.4-3.7-5.6-6.4
		c0.6-0.3,1.4-0.5,1.6-1.2c0.2-1.3-0.5-2.4-1-3.5c-0.3-0.8-1.2-0.4-1.8-0.5c-0.1-0.8,0.6-1.4,1.2-1.9c0.4-0.3,1-0.5,1.3-0.1
		c1,1.2,1.4,2.8,2.4,4c0.4,0,0.7-0.4,0.5-0.8C136.8,27,135.8,25.8,136,24.3L136,24.3z"/>
	<path class="st0" d="M158.5,27.5c1.3-0.8,2.5-1.7,3.8-2.3c0.3,0.4,0.5,0.8,0.7,1.2c-1.2,0.8-2.5,1.2-3.8,1.8
		c-1.5,0.6-2.9,1.2-4.4,1.8C156,29,157.3,28.3,158.5,27.5L158.5,27.5z"/>
	<path class="st0" d="M130.7,33.1c0.6-0.6,1.5-0.9,2.4-0.8c1.2,2.6,3.5,4.5,5.6,6.4c0.5,0.4,1,0.8,1.4,1.2c-0.2,0.3-0.4,0.5-0.6,0.8
		c-0.2-0.1-0.4-0.2-0.6-0.3C135.9,38.2,133.3,35.6,130.7,33.1L130.7,33.1z"/>
	<path class="st1" d="M116.6,35c4.8,0.4,9.6-0.3,14.1-1.9c2.6,2.5,5.2,5.1,8.2,7.2c0.9,5.8,2,11.7,3.1,17.5c0.3,1.3,0.4,2.8,1.4,3.8
		c0.7,0.7,1.7,0.6,2.5,0.9c0.4,0.3,0.4,0.8,0.3,1.2c-1.2,0.3-2.8,0.4-3.7-0.6c-1.7-1.6-1.9-4.1-2.3-6.3c-0.6-3-0.9-6-1.7-8.9
		c-0.2-0.6-0.3-1.4-0.9-1.9c-0.4,0.2-0.3,0.7-0.3,1c0.4,4.5,0.3,9.2,1.1,13.7c0.3,1.1,0.4,2.4,1.4,3.1c0.6,0.5,1.6,0.8,1.7,1.7
		c-0.9,0.5-2,0.4-2.8-0.2c-1-0.9-1.5-2.2-1.8-3.5c-0.5-4-1-8-1.8-12c-0.1-0.8-0.4-1.7-1-2.3c-1-1.1-2.4-1.6-3.8-1.9
		c-2.2-0.4-4.4-0.7-6.6-0.5c-0.8,0.1-1.6,0.5-2.1,1.3c-1,1.6-1.2,3.6-1.3,5.5c-0.1,3.2-0.2,6.4-0.3,9.6c0,0.8,0,1.7,0.6,2.2
		c0.6,0.5,0.8,1.3,0.6,2.1c-1.1,0-2.3-0.7-2.8-1.7c-0.2-1.1,0-2.3,0-3.4c-0.1-3.8-0.4-7.5-0.6-11.3c-0.1-0.7,0.7-1.3,0.4-2.1
		c-0.2-0.4-0.5-0.9-1-0.7c-0.3,0.3-0.4,0.7-0.4,1.1c-0.4,4.2-0.7,8.4-1.1,12.6c-0.1,0.7-0.2,1.4-0.1,2.1c0.3,0.8,1.3,1.4,1.3,2.4
		c0,0.4,0,0.9-0.4,1.1c-0.9-0.2-1.7-0.9-2.1-1.7c-0.5-1.2-0.6-2.4-0.4-3.7c0.2-1.4,0-2.8,0-4.2c-0.1-3.4-0.3-6.8-0.3-10.2
		c0.4-0.8,1.2-1.5,1.4-2.4c0.4-1.4,0.4-2.9,0.2-4.4c-0.2-1.3-1.1-2.3-1.8-3.3c-0.3-0.3-0.2-0.7-0.2-1.1
		C114.5,34.5,115.5,35,116.6,35L116.6,35z"/>
	<path class="st1" d="M140.1,39.8c0.4,0,1-0.2,1.3,0.2c0.5,0.3,0.6,0.9,0.5,1.5c-0.2,0.3-0.4,0.5-0.6,0.8c-0.5,0.1-1.1,0.2-1.5-0.2
		c-0.4-0.3-0.4-0.8-0.4-1.3C139.7,40.4,139.9,40.1,140.1,39.8L140.1,39.8z"/>
	<path class="st0" d="M140.1,41c-0.1-0.6,0.5-0.7,1-0.8l-0.1,0.2C140.7,40.6,140.4,40.8,140.1,41L140.1,41z"/>
	<path class="st2" d="M141,40.4c0.6,0.1,0.5,1.2-0.1,1.3c-0.5,0.2-0.8-0.3-1-0.6l0.2-0.1C140.4,40.8,140.7,40.6,141,40.4L141,40.4z"
		/>
	<path class="st0" d="M141.4,42.2c0.2-0.3,0.4-0.5,0.6-0.8c0.9,1.6,1.8,3.2,2.4,5c0.5,1.5,0.2,3,0,4.5c-0.4,2.5,0.4,5,1.3,7.2
		c1.2,3,3.2,5.7,6.1,7.2c1.3,0.7,3.1,1,4.5,0.1c0.3-0.3,0.8-0.5,0.6-1c-0.3-0.8-1.1-1.2-1.8-1.5c-1.9-0.8-4-1-5.9-0.5
		c2.1-1,4.6-1,6.7,0c0.7,0.3,1.4,1,1.3,1.9c-0.3,1.4-1.4,2.6-2.9,2.6c-2.3,0.1-4.4-1.3-5.9-2.9c-1.7-1.7-2.8-3.8-3.6-6
		c-0.6-1.7-1.1-3.4-1-5.2c0-1.6,0.7-3.3,0.3-4.9C143.5,45.8,142.2,44.1,141.4,42.2L141.4,42.2z"/>
	<path class="st1" d="M133.9,72.6c1.6,0,3.1-0.1,4.6,0c0,10.8,0,21.6,0,32.3c-1.5,0-3.1,0-4.6,0C133.9,94.1,133.9,83.3,133.9,72.6
		L133.9,72.6z"/>
	<path class="st1" d="M49.4,79.8c3.6,0,7.3,0,10.9,0c3.1,0,6.5,0.4,8.9,2.5c2.9,2.4,3.2,7,1.3,10.1c-1.4,2.1-3.9,3.1-6.4,3.2
		c3,3.1,6.2,6.2,9.3,9.3c-2.3,0-4.6,0.1-6.9,0c-1.6-1.5-3.1-3.2-4.6-4.9c-2.1-2.4-4.3-4.8-6.4-7.3c2.4,0,4.9,0.1,7.3-0.6
		c1.2-0.3,2.4-0.9,3.2-1.9c1-1.2,1.2-3.1,0.3-4.4c-0.8-1.3-2.2-2.1-3.6-2.4c-1.6-0.5-3.4-0.3-5.1-0.3c-1.2,0-2.4,0-3.6,0
		c0,7.2,0,14.4,0,21.7c-1.6,0-3.2,0-4.7,0C49.4,96.6,49.4,88.2,49.4,79.8L49.4,79.8z"/>
	<path class="st1" d="M110.4,81.7c2.7-1.6,5.9-2.1,9-1.5c4.4,0.8,8.3,4.2,9.5,8.5c-1.7,0-3.4,0-5.1,0c-0.7-1.4-1.7-2.8-3.1-3.6
		c-2-1.2-4.6-1.2-6.8-0.4c-2.2,0.8-3.7,2.8-4.4,5c-1.1,3.3-0.3,7.2,2.3,9.6c2.7,2.6,7.4,2.6,10.2,0c0.8-0.7,1.3-1.6,1.8-2.5
		c1.7,0,3.4,0,5.1,0c-1,3.3-3.5,6.1-6.6,7.5c-2.9,1.3-6.2,1.5-9.3,0.6c-2.6-0.8-4.8-2.5-6.3-4.8c-2.3-3.5-2.9-8.1-1.5-12
		C106.1,85.6,107.9,83.2,110.4,81.7L110.4,81.7z"/>
	<path class="st1" d="M191.9,80.8c2.3-0.8,4.8-0.9,7.1-0.2c1.7,0.5,3.4,1.5,4.4,3c0.7,1,1.1,2.2,1,3.3c-1.7,0-3.4,0-5.1,0
		c-0.3-1.2-1-2.2-2.1-2.6c-1.5-0.5-3.3-0.4-4.5,0.8c-0.9,0.8-0.9,2.4,0,3.3c0.6,0.6,1.5,1,2.4,1.2c1.4,0.4,2.8,0.7,4.1,1.2
		c1.9,0.7,3.8,1.7,4.9,3.5c1.5,2.2,1.3,5.4-0.2,7.6c-1.1,1.6-3,2.7-4.9,3.2c-2.9,0.8-6.1,0.4-8.8-0.9c-1.4-0.7-2.8-1.8-3.6-3.2
		c-0.7-1.2-1-2.5-0.9-3.8c1.7,0,3.4,0,5,0c0.3,1.2,0.6,2.5,1.6,3.3c1.7,1.3,4.1,1.5,6,0.6c1.5-0.7,2.3-2.8,1.3-4.3
		c-0.9-1.2-2.3-1.7-3.6-2.1c-2.4-0.8-5.1-1.3-7.1-3.1c-1.9-1.7-2.4-4.7-1.3-6.9C188.4,82.8,190,81.5,191.9,80.8L191.9,80.8z"/>
	<path class="st1" d="M158.5,80.6c1.5,0,3.1,0,4.6,0c0,3.8,0,7.6,0,11.4c0,2.3-0.1,4.8,1.1,6.9c0.8,1.3,2.2,2.1,3.7,2.3
		c2,0.3,4.2-0.1,5.6-1.6c1.4-1.5,1.9-3.7,1.9-5.6c0-4.4,0-8.9,0-13.3c1.5-0.1,3.1-0.1,4.6,0c0,8.1,0,16.1,0,24.2c-1.4,0-2.8,0-4.2,0
		c0-0.8,0-1.7,0-2.5c-1,1.4-2.5,2.3-4.2,2.8c-3.6,0.9-7.8,0.2-10.5-2.5c-2-2.1-2.6-5-2.6-7.8C158.5,90.1,158.5,85.4,158.5,80.6
		L158.5,80.6z"/>
	<path class="st1" d="M77.2,80.7c1.5,0,3.1,0,4.6,0c0,4.4,0,8.8,0,13.3c0.1,2,0.3,4.2,1.7,5.8c1.2,1.4,3.1,1.8,4.8,1.6
		c1.6-0.1,3.2-0.8,4.2-2c1.3-1.6,1.6-3.8,1.6-5.8c0-4.3,0-8.6,0-12.9c1.5,0,3.1,0,4.6,0c0,8.1,0,16.2,0,24.2c-1.4,0-2.8,0-4.2,0
		c0-0.8,0-1.6,0-2.5c-1,1.4-2.5,2.3-4.2,2.7c-3.6,0.9-7.8,0.2-10.5-2.5c-2.1-2.2-2.6-5.3-2.7-8.2C77.2,89.8,77.2,85.2,77.2,80.7
		L77.2,80.7z"/>
	<path class="st1" d="M141,92.4c2.7-3.9,5.5-7.8,8.3-11.8c1.9,0,3.8,0,5.7,0c-2.8,3.9-5.8,7.6-8.7,11.4c3.3,4.3,6.8,8.5,10.1,12.8
		c-1.8,0-3.6,0-5.4,0c-0.4,0.1-0.6-0.3-0.8-0.6C147.2,100.4,144.1,96.4,141,92.4L141,92.4z"/>
	<path class="st1" d="M206.8,83c0.7-0.1,1.3-0.1,2,0c0.1,0.1,0.2,0.2,0.3,0.3c-0.3,0.1-0.7,0.2-1,0.2c0,0.8,0,1.7,0,2.5
		c-0.1,0-0.4,0-0.5,0c0-0.8,0-1.7,0-2.5c-0.3-0.1-0.7-0.2-1-0.2C206.6,83.2,206.8,83.1,206.8,83L206.8,83z"/>
	<path class="st1" d="M210.2,82.8c0.5,0.8,0.9,1.6,1.3,2.4c0.5-0.8,0.8-1.6,1.3-2.3c0.3,1.1,0.5,2.2,0.8,3.3c-0.1,0-0.4,0-0.6-0.1
		c-0.1-0.6-0.3-1.1-0.4-1.7c-0.4,0.6-0.8,1.3-1.1,2c-0.4-0.6-0.8-1.3-1.1-1.9c-0.2,0.6-0.3,1.2-0.5,1.7c-0.1,0-0.4,0-0.5,0
		C209.6,85,209.9,83.9,210.2,82.8L210.2,82.8z"/>
	<path class="st1" d="M146.1,112.2c0.7,0,1.4,0,2.1,0c0.1,2.3,0,4.6,0,6.9c1.2,0,2.3,0,3.5,0c0,0.5,0,0.9,0,1.4c-1.9,0-3.8,0-5.7,0
		C146.1,117.8,146,115,146.1,112.2L146.1,112.2z"/>
	<path class="st1" d="M155.9,112.2c2.1,0,4.1,0,6.2,0c0,0.5,0,1,0,1.5c-1.3,0-2.7,0-4,0c0,0.6,0,1.3,0,1.9c1.3,0,2.6,0,3.9,0
		c0,0.5,0,1,0,1.5c-1.3,0-2.6,0-3.9,0c0,0.6,0,1.3,0,1.9c1.3,0,2.7,0,4,0c0,0.5,0,1,0,1.4c-2.1,0-4.2,0-6.2,0
		C155.9,117.8,155.8,115,155.9,112.2L155.9,112.2z"/>
	<path class="st1" d="M167.4,112.9c1.3-1.1,3.3-1.1,4.8-0.4c0.8,0.3,1.3,1.1,1.4,1.9c-0.7,0-1.5,0.2-2.2-0.1
		c-0.4-0.9-1.7-1.2-2.4-0.4c-0.3,0.4-0.1,0.9,0.4,1.1c1.3,0.5,2.8,0.5,3.8,1.5c0.9,0.8,0.8,2.5-0.3,3.2c-1.1,0.9-2.8,1-4.2,0.8
		c-1.2-0.3-2.4-1.1-2.5-2.4c0.7,0,1.4,0,2.2,0c0.4,1.2,2.1,1.5,3,0.6c0.4-0.4,0.2-1.1-0.3-1.3c-1.2-0.6-2.6-0.6-3.7-1.4
		C166.5,115.3,166.5,113.7,167.4,112.9L167.4,112.9z"/>
	<path class="st1" d="M178,114.3c0.1-1.1,1.1-1.8,2.1-2.1c1.4-0.3,3.1-0.2,4.1,0.9c0.4,0.4,0.5,0.9,0.6,1.4c-0.7,0-1.4,0-2.2,0
		c-0.3-0.9-1.5-1.2-2.2-0.6c-0.4,0.3-0.3,1,0.1,1.2c1,0.5,2.1,0.5,3.1,1c0.8,0.4,1.5,1.2,1.4,2.1c0,1.2-1.1,2.1-2.2,2.4
		c-1.5,0.4-3.3,0.3-4.5-0.7c-0.5-0.4-0.8-1-0.9-1.6c0.8-0.1,1.5,0,2.3,0c0.4,1.2,2,1.4,2.9,0.6c0.4-0.4,0.3-1.1-0.2-1.3
		c-1.1-0.6-2.5-0.6-3.6-1.3C178.2,115.7,177.9,115,178,114.3L178,114.3z"/>
	<path class="st1" d="M97.1,112.3c0.7,0,1.4,0,2.1,0c0.3,0.2,0.3,0.5,0.4,0.8c0.6,1.6,1.1,3.2,1.7,4.9c0.7-1.9,1.3-3.8,2-5.6
		c0.6,0,1.1,0,1.7,0c0.6,1.9,1.3,3.8,1.9,5.7c0.8-1.9,1.3-3.8,2-5.7c0.8,0,1.5,0,2.2,0c-1.1,2.8-2.2,5.5-3.3,8.2
		c-0.6,0-1.3,0.2-1.8-0.1c-0.7-1.7-1.2-3.5-1.9-5.2c-0.6,1.8-1.2,3.6-1.9,5.4c-0.6,0-1.2,0-1.7,0C99.3,117.8,98.1,115,97.1,112.3
		L97.1,112.3z"/>
	<path class="st1" d="M115.2,112.3c0.7-0.1,1.4-0.1,2.2,0c0,2.7,0,5.5,0,8.2c-0.7,0-1.4,0-2.2,0C115.2,117.8,115.2,115,115.2,112.3
		L115.2,112.3z"/>
	<path class="st1" d="M127.3,117.5c0.7-0.2,1.5-0.4,2.1-0.9c0.8-0.7,1.1-1.9,0.6-2.8c-0.6-1.1-1.9-1.6-3.2-1.6c-1.4,0-2.9,0-4.3,0
		c0,2.7,0,5.5,0,8.2c0.7,0,1.4,0,2.2,0c0-1,0-2,0-3.1c1,1,1.9,2.1,3,3c0.8,0.1,1.7,0,2.6,0C129.4,119.4,128.4,118.5,127.3,117.5z
		 M124.8,116.2v-2.4c1,0,2.2-0.3,3,0.5c0.5,0.4,0.3,1.3-0.2,1.6C126.8,116.3,125.7,116.2,124.8,116.2z"/>
	<path class="st1" d="M134.6,112.3c2.1-0.1,4.2-0.1,6.3,0c0,0.5,0,1,0,1.4c-1.4,0-2.7,0-4.1,0c0,0.6,0,1.2,0,1.9
		c1.3,0.1,2.6,0,3.9,0.1c0,0.5,0,1,0,1.4c-1.3,0-2.6,0-3.9,0c0,0.6,0,1.2,0,1.9c1.4,0.1,2.8,0,4.1,0.1c0,0.4,0,0.9,0,1.4
		c-2.1,0-4.2,0-6.3,0C134.6,117.8,134.6,115,134.6,112.3L134.6,112.3z"/>
</g>
</svg>
