<?xml version="1.0" encoding="utf-8"?>
<!-- Generator: Adobe Illustrator 26.0.1, SVG Export Plug-In . SVG Version: 6.00 Build 0)  -->
<svg version="1.1" id="Layer_1" xmlns="http://www.w3.org/2000/svg" xmlns:xlink="http://www.w3.org/1999/xlink" x="0px" y="0px"
	 viewBox="0 0 263 140" style="enable-background:new 0 0 263 140;" xml:space="preserve">
<style type="text/css">
	.st0{fill-rule:evenodd;clip-rule:evenodd;}
</style>
<g id="Слой_x0020_1">
	<g id="_195629184">
		<path class="st0" d="M130.3,32.1c13.8,0,25.9,6.5,32.5,16.2c-7.8-5.8-19.5-9.5-32.5-9.5s-24.7,3.7-32.5,9.5
			C104.4,38.6,116.5,32.1,130.3,32.1z"/>
		<path class="st0" d="M61.5,58.4c0,8.4-0.3,26.5,0.2,33.7c0.4,5.4,2.5,9.1,5.3,11.5c9.7,8.2,34.4,2.3,34.4,0.1V55.6H91.1L91,97.8
			c-4,1.2-9.6,2.2-13.8,0.6c-4.5-1.6-5.3-5.3-5.3-10.9v-32H57.2L61.5,58.4z"/>
		<path class="st0" d="M112.2,58.7v47.5v0.6h0.6h9.7l0.1-42.4c5.1-1.2,4.7-1.4,10-1.4c4.3,0,7.3,2,8.7,4.7c1.6,3.3,1,7,1.1,12.3
			v26.7h10.4l0.1-35.6c0-9.5-6.1-14.7-14.6-16.1c-7.6-1.2-16.3-0.3-23.7,2.2c-0.7,0.2-2.3,0.8-2.4,0.9
			C112.2,58.1,112.2,58.7,112.2,58.7z"/>
		<polygon class="st0" points="175.6,106.9 187.6,106.9 205.8,55.5 194.3,55.5 181.5,96.2 168.8,55.6 153.1,55.6 158.5,58.9 		"/>
	</g>
</g>
</svg>
